<?xml version="1.0" encoding="utf-8"?>
<!-- Generator: Adobe Illustrator 23.0.0, SVG Export Plug-In . SVG Version: 6.00 Build 0)  -->
<svg version="1.1" id="Layer_1" xmlns="http://www.w3.org/2000/svg" xmlns:xlink="http://www.w3.org/1999/xlink" x="0px" y="0px"
	 viewBox="0 0 217.4 70.9" style="enable-background:new 0 0 217.4 70.9;" xml:space="preserve">
<style type="text/css">
	.st0{fill:#26A4DE;}
	.st1{fill:#414042;}
</style>
<g>
	<g>
		<g>
			<path class="st0" d="M35.6,45.2c-1.3-0.6-2.4-1.3-3.3-2.2c-0.9-0.9-1.7-2.1-2.2-3.3c-0.5-1.3-0.8-2.6-0.8-4.1s0.3-2.8,0.8-4.1
				c0.5-1.3,1.3-2.4,2.2-3.3c0.9-0.9,2-1.7,3.3-2.2c1.3-0.5,2.6-0.8,4-0.8c1.4,0,2.8,0.3,4.1,0.8c1.3,0.5,2.4,1.3,3.3,2.2
				c0.9,0.9,1.7,2.1,2.2,3.3c0.6,1.3,0.8,2.6,0.8,4.1c0,1-0.1,1.9-0.4,2.8c-0.3,0.8-0.6,1.6-0.9,2.3l1.7,1.6c0.5,0.5,0.7,1,0.7,1.6
				c0,0.2,0,0.4-0.1,0.7s-0.2,0.5-0.4,0.7c-0.2,0.2-0.4,0.4-0.7,0.6c-0.3,0.2-0.6,0.2-1.1,0.2c-0.3,0-0.6-0.1-0.9-0.2
				c-0.3-0.1-0.5-0.3-0.8-0.5L45.8,44c-0.8,0.6-1.7,1.1-2.7,1.4c-1,0.4-2.1,0.6-3.4,0.6C38.2,46,36.9,45.8,35.6,45.2z M34.4,37.8
				c0.3,0.7,0.7,1.3,1.2,1.8c0.5,0.5,1.1,0.9,1.8,1.2c0.7,0.3,1.4,0.4,2.2,0.4s1.5-0.2,2.2-0.4c0.7-0.3,1.3-0.7,1.8-1.2
				c0.5-0.5,0.9-1.1,1.2-1.8s0.4-1.4,0.4-2.2s-0.2-1.5-0.4-2.2c-0.3-0.7-0.7-1.3-1.2-1.8c-0.5-0.5-1.1-0.9-1.8-1.2s-1.5-0.5-2.2-0.5
				s-1.5,0.2-2.2,0.5c-0.7,0.3-1.3,0.7-1.8,1.2c-0.5,0.5-0.9,1.1-1.2,1.8s-0.4,1.4-0.4,2.2S34.1,37.1,34.4,37.8z"/>
			<path class="st0" d="M59.7,41.3h6c0.6,0,1.1,0.2,1.5,0.6s0.7,0.9,0.7,1.6s-0.2,1.1-0.7,1.6c-0.4,0.4-0.9,0.6-1.5,0.6h-8.4
				c-0.7,0-1.2-0.2-1.7-0.7c-0.5-0.5-0.7-1-0.7-1.7V27.8c0-0.7,0.2-1.2,0.7-1.7s1-0.7,1.7-0.7c0.7,0,1.2,0.2,1.7,0.7
				c0.5,0.5,0.7,1,0.7,1.7V41.3z"/>
			<path class="st1" d="M85.6,41.7c0.3,0.2,0.5,0.5,0.6,0.8c0.1,0.3,0.2,0.6,0.2,0.9c0,0.3-0.1,0.5-0.2,0.8
				c-0.1,0.3-0.2,0.5-0.4,0.7c-0.2,0.2-0.4,0.4-0.7,0.6c-0.3,0.1-0.6,0.2-1,0.2c-0.3,0-0.5,0-0.8-0.1s-0.5-0.2-0.7-0.4l-6.1-5.3
				h-0.3v3.4c0,0.7-0.2,1.2-0.7,1.7c-0.5,0.5-1,0.7-1.7,0.7c-0.7,0-1.2-0.2-1.7-0.7c-0.5-0.5-0.7-1-0.7-1.7V27.8
				c0-0.7,0.2-1.2,0.7-1.7s1-0.7,1.7-0.7H79c1,0,1.9,0.2,2.8,0.6c0.9,0.4,1.7,0.9,2.3,1.6c0.7,0.7,1.2,1.4,1.6,2.3s0.6,1.8,0.6,2.8
				c0,1.4-0.4,2.6-1.2,3.6c-0.8,1-1.9,1.8-3.4,2.3L85.6,41.7z M76.2,29.9v5.7H79c0.4,0,0.8-0.1,1.1-0.2s0.6-0.4,0.9-0.6
				s0.5-0.6,0.6-0.9s0.2-0.7,0.2-1.1s-0.1-0.8-0.2-1.1c-0.2-0.3-0.4-0.7-0.6-0.9c-0.3-0.3-0.6-0.5-0.9-0.6c-0.3-0.2-0.7-0.2-1.1-0.2
				L76.2,29.9L76.2,29.9z"/>
			<path class="st1" d="M95.2,41c0,0.1,0.1,0.2,0.2,0.3c0.1,0.1,0.3,0.2,0.5,0.3c0.2,0.1,0.4,0.2,0.7,0.2c0.3,0.1,0.5,0.1,0.7,0.1
				c0.6,0,1-0.1,1.3-0.2c0.3-0.2,0.6-0.3,0.8-0.5s0.4-0.3,0.7-0.5s0.5-0.2,0.8-0.2c0.3,0,0.5,0.1,0.8,0.2c0.3,0.1,0.5,0.3,0.7,0.5
				c0.2,0.2,0.3,0.4,0.5,0.7s0.2,0.5,0.2,0.8c0,0.5-0.2,1-0.6,1.4c-0.6,0.5-1.3,1-2.2,1.4s-1.9,0.6-3,0.6c-1.1,0-2.1-0.2-3-0.6
				s-1.8-0.9-2.4-1.6c-0.7-0.7-1.3-1.5-1.7-2.4c-0.4-0.9-0.6-2-0.6-3.1s0.2-2.2,0.6-3.1c0.4-0.9,1-1.8,1.7-2.4
				c0.7-0.7,1.5-1.2,2.4-1.6s1.9-0.6,3-0.6c0.8,0,1.6,0.1,2.4,0.4s1.5,0.6,2.1,1.1c0.6,0.5,1.1,1,1.4,1.7c0.4,0.7,0.6,1.4,0.6,2.2
				c0,0.4-0.1,0.8-0.3,1.2s-0.5,0.6-0.9,0.7l-7,2.9C95.4,40.7,95.2,40.8,95.2,41z M94,37.5c0.1,0,0.1,0.1,0.2,0.1
				c0.1,0,0.2,0,0.3-0.1l4.4-1.8c0.3-0.1,0.4-0.2,0.4-0.4c0-0.2-0.2-0.4-0.6-0.5s-0.8-0.2-1.3-0.2c-0.5,0-1,0.1-1.4,0.3
				s-0.8,0.4-1.1,0.7c-0.3,0.3-0.5,0.6-0.7,0.9s-0.3,0.6-0.3,0.9C94,37.4,94,37.4,94,37.5z"/>
			<path class="st1" d="M118.8,43c-0.3,0.6-0.8,1.2-1.3,1.6c-0.6,0.4-1.2,0.7-1.9,1c-0.7,0.2-1.5,0.3-2.3,0.3c-0.6,0-1.3-0.1-2-0.3
				c-0.7-0.2-1.4-0.5-2-0.8c-0.6-0.4-1.2-0.8-1.6-1.3c-0.4-0.5-0.6-1-0.6-1.6c0-0.7,0.2-1.3,0.6-1.6s0.9-0.5,1.5-0.5
				c0.4,0,0.8,0.1,1.1,0.4s0.7,0.5,1,0.8c0.3,0.3,0.7,0.6,1,0.8s0.7,0.4,1.1,0.4c0.4,0,0.7-0.1,1.1-0.2s0.5-0.4,0.5-0.8
				c0-0.3-0.2-0.6-0.5-0.8s-0.8-0.4-1.3-0.6s-1.1-0.3-1.7-0.5c-0.6-0.2-1.2-0.4-1.7-0.8c-0.5-0.3-1-0.8-1.3-1.3s-0.5-1.2-0.5-2.1
				c0-0.7,0.1-1.3,0.3-1.8c0.2-0.6,0.5-1,0.9-1.4c0.4-0.4,0.9-0.7,1.6-1s1.4-0.3,2.2-0.3c0.8,0,1.5,0.1,2.2,0.2s1.2,0.4,1.7,0.6
				c0.5,0.3,0.8,0.6,1.1,0.9c0.3,0.4,0.4,0.8,0.4,1.2c0,0.5-0.2,0.9-0.5,1.3c-0.4,0.4-0.8,0.5-1.3,0.5c-0.4,0-0.8-0.1-1.1-0.2
				s-0.6-0.3-0.8-0.4s-0.5-0.3-0.7-0.4s-0.5-0.2-0.9-0.2c-0.2,0-0.4,0.1-0.5,0.2c-0.1,0.1-0.2,0.3-0.2,0.5c0,0.4,0.2,0.7,0.5,0.9
				s0.8,0.4,1.3,0.5s1.1,0.3,1.7,0.5c0.6,0.2,1.2,0.4,1.7,0.7s1,0.8,1.3,1.3c0.4,0.6,0.5,1.3,0.5,2.2
				C119.3,41.6,119.2,42.4,118.8,43z"/>
			<path class="st1" d="M127.3,45.3c-0.9-0.4-1.8-0.9-2.4-1.6c-0.7-0.7-1.3-1.5-1.7-2.4c-0.4-0.9-0.6-2-0.6-3.1s0.2-2.2,0.6-3.1
				c0.4-0.9,1-1.8,1.7-2.4c0.7-0.7,1.5-1.2,2.4-1.6c0.9-0.4,1.9-0.6,3-0.6s2.1,0.2,3,0.6s1.8,0.9,2.4,1.6c0.7,0.7,1.3,1.5,1.7,2.4
				c0.4,0.9,0.6,2,0.6,3.1s-0.2,2.2-0.6,3.1c-0.4,0.9-1,1.8-1.7,2.4c-0.7,0.7-1.5,1.2-2.4,1.6s-1.9,0.6-3,0.6S128.2,45.7,127.3,45.3
				z M126.9,39.6c0.2,0.4,0.4,0.8,0.8,1.2c0.3,0.3,0.7,0.6,1.2,0.8s0.9,0.3,1.4,0.3c0.5,0,1-0.1,1.4-0.3s0.8-0.4,1.2-0.8
				s0.6-0.7,0.8-1.2s0.3-0.9,0.3-1.4c0-0.5-0.1-1-0.3-1.4s-0.4-0.8-0.8-1.2s-0.7-0.6-1.2-0.8s-0.9-0.3-1.4-0.3s-1,0.1-1.4,0.3
				s-0.8,0.4-1.2,0.8c-0.3,0.3-0.6,0.7-0.8,1.2s-0.3,0.9-0.3,1.4S126.7,39.1,126.9,39.6z"/>
			<path class="st1" d="M145.5,45.4c-0.8-0.3-1.5-0.8-2.1-1.4c-0.6-0.6-1.1-1.3-1.4-2.1s-0.5-1.6-0.5-2.5v-6.7
				c0-0.6,0.2-1.1,0.6-1.5c0.4-0.4,0.9-0.6,1.5-0.6c0.3,0,0.6,0.1,0.8,0.2c0.3,0.1,0.5,0.3,0.7,0.4c0.2,0.2,0.3,0.4,0.4,0.7
				c0.1,0.2,0.2,0.5,0.2,0.8v6.9c0,0.6,0.2,1.1,0.7,1.5c0.5,0.4,1,0.6,1.6,0.6c0.6,0,1.1-0.2,1.6-0.6s0.7-0.9,0.7-1.5v-6.9
				c0-0.3,0.1-0.6,0.2-0.8c0.1-0.3,0.3-0.5,0.4-0.7c0.2-0.2,0.4-0.3,0.7-0.4c0.3-0.1,0.5-0.2,0.8-0.2c0.6,0,1.1,0.2,1.5,0.6
				c0.4,0.4,0.6,0.9,0.6,1.5v6.7c0,0.9-0.2,1.7-0.5,2.5s-0.8,1.5-1.4,2.1c-0.6,0.6-1.3,1.1-2.1,1.4s-1.6,0.5-2.5,0.5
				C147.2,45.9,146.3,45.7,145.5,45.4z"/>
			<path class="st1" d="M162.9,43.6c0,0.6-0.2,1.1-0.6,1.5c-0.4,0.4-0.9,0.6-1.5,0.6c-0.6,0-1.1-0.2-1.5-0.6
				c-0.4-0.4-0.6-0.9-0.6-1.5V32.7c0-0.6,0.2-1.1,0.6-1.5c0.4-0.4,0.9-0.6,1.5-0.6c0.4,0,0.9,0.1,1.2,0.4c0.4,0.3,0.6,0.5,0.7,0.9
				c0.1-0.1,0.3-0.2,0.5-0.3c0.2-0.1,0.5-0.3,0.7-0.4c0.3-0.1,0.6-0.3,0.9-0.3s0.6-0.2,1-0.2c0.3,0,0.7,0.1,1,0.2
				c0.3,0.1,0.6,0.3,0.9,0.5s0.5,0.4,0.6,0.8c0.2,0.3,0.2,0.7,0.2,1.1c0,0.4-0.1,0.8-0.2,1.1c-0.1,0.3-0.3,0.6-0.6,0.8
				c-0.2,0.2-0.5,0.4-0.8,0.5c-0.3,0.1-0.6,0.2-0.9,0.2c-0.3,0-0.6,0-0.8-0.1s-0.4-0.2-0.6-0.3s-0.3-0.2-0.5-0.3s-0.3-0.1-0.5-0.1
				c-0.1,0-0.2,0-0.3,0c-0.1,0-0.2,0.1-0.4,0.2s-0.2,0.2-0.3,0.4s-0.1,0.4-0.1,0.7L162.9,43.6L162.9,43.6z"/>
			<path class="st1" d="M181.6,45.3c-0.9,0.4-1.9,0.6-3,0.6c-1.1,0-2.1-0.2-3-0.6c-0.9-0.4-1.8-0.9-2.4-1.6
				c-0.7-0.7-1.3-1.5-1.7-2.4c-0.4-0.9-0.6-2-0.6-3.1s0.2-2.2,0.6-3.1c0.4-0.9,1-1.8,1.7-2.4c0.7-0.7,1.5-1.2,2.4-1.6s1.9-0.6,3-0.6
				c1.1,0,2.1,0.2,3,0.6s1.6,0.8,2.2,1.3c0.3,0.3,0.6,0.6,0.7,0.9c0.1,0.3,0.2,0.6,0.2,0.9c0,0.5-0.2,1-0.6,1.4s-0.9,0.6-1.5,0.6
				c-0.4,0-0.7-0.1-1-0.2c-0.3-0.2-0.5-0.3-0.8-0.5c-0.3-0.2-0.6-0.4-0.9-0.5s-0.8-0.2-1.3-0.2c-0.5,0-1,0.1-1.4,0.3
				s-0.8,0.4-1.2,0.8s-0.6,0.7-0.8,1.2s-0.3,0.9-0.3,1.4c0,0.5,0.1,1,0.3,1.4s0.4,0.8,0.8,1.2s0.7,0.6,1.2,0.8s0.9,0.3,1.4,0.3
				c0.6,0,1-0.1,1.4-0.2c0.3-0.2,0.6-0.3,0.9-0.6c0.3-0.2,0.5-0.4,0.8-0.6s0.6-0.2,1-0.2c0.6,0,1.1,0.2,1.5,0.6
				c0.4,0.4,0.6,0.8,0.6,1.4c0,0.3-0.1,0.6-0.2,0.9s-0.4,0.6-0.7,0.9C183.2,44.5,182.5,44.9,181.6,45.3z"/>
			<path class="st1" d="M193.3,41c0,0.1,0.1,0.2,0.2,0.3c0.1,0.1,0.3,0.2,0.5,0.3c0.2,0.1,0.4,0.2,0.7,0.2c0.3,0.1,0.5,0.1,0.7,0.1
				c0.6,0,1-0.1,1.4-0.2c0.3-0.2,0.6-0.3,0.8-0.5s0.4-0.3,0.6-0.5c0.2-0.2,0.5-0.2,0.9-0.2c0.3,0,0.5,0.1,0.8,0.2
				c0.3,0.1,0.5,0.3,0.7,0.5c0.2,0.2,0.4,0.4,0.5,0.7s0.2,0.5,0.2,0.8c0,0.5-0.2,1-0.6,1.4c-0.6,0.5-1.3,1-2.2,1.4
				c-0.9,0.4-1.9,0.6-3,0.6c-1.1,0-2.1-0.2-3-0.6c-0.9-0.4-1.8-0.9-2.4-1.6c-0.7-0.7-1.3-1.5-1.7-2.4c-0.4-0.9-0.6-2-0.6-3.1
				s0.2-2.2,0.6-3.1c0.4-0.9,1-1.8,1.7-2.4c0.7-0.7,1.5-1.2,2.4-1.6s1.9-0.6,3-0.6c0.8,0,1.6,0.1,2.4,0.4s1.5,0.6,2.1,1.1
				c0.6,0.5,1.1,1,1.4,1.7c0.4,0.7,0.6,1.4,0.6,2.2c0,0.4-0.1,0.8-0.3,1.2s-0.5,0.6-0.9,0.7l-7,2.9C193.5,40.7,193.3,40.8,193.3,41z
				 M192.1,37.5c0.1,0,0.1,0.1,0.2,0.1c0.1,0,0.2,0,0.3-0.1l4.4-1.8c0.3-0.1,0.4-0.2,0.4-0.4c0-0.2-0.2-0.4-0.6-0.5
				s-0.8-0.2-1.4-0.2c-0.5,0-1,0.1-1.4,0.3c-0.4,0.2-0.8,0.4-1.1,0.7c-0.3,0.3-0.5,0.6-0.7,0.9c-0.2,0.3-0.3,0.6-0.3,0.9
				C192.1,37.4,192.1,37.4,192.1,37.5z"/>
			<path class="st1" d="M216.9,43c-0.3,0.6-0.8,1.2-1.3,1.6c-0.6,0.4-1.2,0.7-1.9,1c-0.7,0.2-1.5,0.3-2.3,0.3c-0.6,0-1.3-0.1-2-0.3
				c-0.7-0.2-1.4-0.5-2-0.8c-0.6-0.4-1.1-0.8-1.6-1.3c-0.4-0.5-0.6-1-0.6-1.6c0-0.7,0.2-1.3,0.6-1.6c0.4-0.3,0.9-0.5,1.5-0.5
				c0.4,0,0.8,0.1,1.1,0.4s0.7,0.5,1,0.8c0.3,0.3,0.7,0.6,1,0.8s0.7,0.4,1.1,0.4c0.4,0,0.7-0.1,1.1-0.2s0.5-0.4,0.5-0.8
				c0-0.3-0.2-0.6-0.5-0.8s-0.8-0.4-1.3-0.6s-1.1-0.3-1.7-0.5c-0.6-0.2-1.2-0.4-1.7-0.8c-0.5-0.3-1-0.8-1.3-1.3
				c-0.4-0.5-0.5-1.2-0.5-2.1c0-0.7,0.1-1.3,0.3-1.8c0.2-0.6,0.5-1,0.9-1.4c0.4-0.4,0.9-0.7,1.6-1s1.4-0.3,2.2-0.3
				c0.8,0,1.5,0.1,2.2,0.2s1.2,0.4,1.7,0.6c0.5,0.3,0.8,0.6,1.1,0.9c0.3,0.4,0.4,0.8,0.4,1.2c0,0.5-0.2,0.9-0.5,1.3
				c-0.4,0.4-0.8,0.5-1.3,0.5c-0.4,0-0.8-0.1-1.1-0.2s-0.6-0.3-0.8-0.4s-0.5-0.3-0.7-0.4S211.4,34,211,34c-0.2,0-0.4,0.1-0.5,0.2
				c-0.1,0.1-0.2,0.3-0.2,0.5c0,0.4,0.2,0.7,0.5,0.9s0.8,0.4,1.3,0.5s1.1,0.3,1.7,0.5c0.6,0.2,1.2,0.4,1.7,0.7s1,0.8,1.3,1.3
				c0.4,0.6,0.5,1.3,0.5,2.2C217.4,41.6,217.3,42.4,216.9,43z"/>
		</g>
	</g>
	<g>
		<g>
			<circle class="st0" cx="67.2" cy="55" r="1.7"/>
			<circle class="st0" cx="60.2" cy="61.5" r="2.3"/>
			<circle class="st0" cx="51.7" cy="65.7" r="2.5"/>
			<circle class="st0" cx="42.2" cy="67.8" r="2.7"/>
			<circle class="st0" cx="32.7" cy="67.6" r="3.3"/>
			<circle class="st0" cx="23.6" cy="64.3" r="3.6"/>
			<circle class="st0" cx="15.7" cy="59.2" r="3.8"/>
			<circle class="st0" cx="9.1" cy="52.3" r="3.6"/>
			<circle class="st0" cx="4.6" cy="43.9" r="3.1"/>
			<circle class="st0" cx="2.6" cy="34.5" r="2.6"/>
			<circle class="st0" cx="3" cy="24.8" r="2.4"/>
			<circle class="st0" cx="6" cy="15.6" r="1.6"/>
			<circle class="st0" cx="11.3" cy="7.4" r="1.4"/>
		</g>
	</g>
	<g>
		<circle class="st1" cx="37.5" cy="61.3" r="1.4"/>
		<circle class="st1" cx="29.8" cy="59.9" r="1.9"/>
		<circle class="st1" cx="22.8" cy="56.4" r="2.1"/>
		<circle class="st1" cx="16.8" cy="51.2" r="2.2"/>
		<circle class="st1" cx="12.2" cy="44.9" r="2.7"/>
		<circle class="st1" cx="9.9" cy="37.2" r="2.9"/>
		<circle class="st1" cx="9.4" cy="29.6" r="3.1"/>
		<circle class="st1" cx="10.6" cy="21.9" r="2.9"/>
		<circle class="st1" cx="14" cy="14.7" r="2.5"/>
		<circle class="st1" cx="19.2" cy="8.8" r="2.2"/>
		<circle class="st1" cx="25.7" cy="4.2" r="2"/>
		<circle class="st1" cx="33.2" cy="1.7" r="1.3"/>
		<circle class="st1" cx="41.3" cy="1.1" r="1.1"/>
	</g>
	<g>
		<g>
			<circle class="st0" cx="18.6" cy="44.3" r="1.1"/>
			<circle class="st0" cx="16" cy="38.6" r="1.5"/>
			<circle class="st0" cx="15.2" cy="32.4" r="1.7"/>
			<circle class="st0" cx="15.8" cy="26.1" r="1.8"/>
			<circle class="st0" cx="17.8" cy="20.1" r="2.1"/>
			<circle class="st0" cx="21.8" cy="15.1" r="2.3"/>
			<circle class="st0" cx="26.6" cy="11.3" r="2.5"/>
			<circle class="st0" cx="32.2" cy="8.6" r="2.3"/>
			<circle class="st0" cx="38.4" cy="7.5" r="2"/>
			<circle class="st0" cx="44.7" cy="8.2" r="1.7"/>
			<circle class="st0" cx="50.7" cy="10.4" r="1.6"/>
			<circle class="st0" cx="55.8" cy="14.1" r="1.1"/>
			<circle class="st0" cx="59.8" cy="19.2" r="0.9"/>
		</g>
	</g>
</g>
</svg>
